<svg width="47" height="47" viewBox="0 0 47 47" fill="none" xmlns="http://www.w3.org/2000/svg">
<path d="M1.375 40.7083C9.56862 35.7917 13.6667 30.875 13.6667 25.9583C13.6667 18.5833 11.2083 18.5833 8.75 18.5833C6.29167 18.5833 3.75467 21.2506 3.83333 25.9583C3.91692 30.993 7.90925 33.031 9.97917 35.7917C13.6667 40.7083 16.125 41.9375 18.5833 38.25C20.223 35.7917 21.4522 33.7439 22.2708 32.1042C24.7292 37.8395 28.0061 40.7083 32.1042 40.7083H38.25M33.3333 33.3333V35.7917L38.25 40.7083L39.4792 39.4792M43.1667 33.3333V6.29167C43.1667 3.53587 41.0058 1.375 38.25 1.375C35.4942 1.375 33.3333 3.53587 33.3333 6.29167V23.5M33.3333 11.2083H43.1667M1.375 1.375L45.625 45.625" stroke="white" stroke-width="2" stroke-linecap="round" stroke-linejoin="round"/>
</svg>
