<svg width="39" height="39" viewBox="0 0 39 39" fill="none" xmlns="http://www.w3.org/2000/svg">
<path d="M16.14 31.48C7.64399 31.48 0.799988 24.636 0.799988 16.14C0.799988 7.64399 7.64399 0.799988 16.14 0.799988C24.636 0.799988 31.48 7.64399 31.48 16.14C31.48 24.636 24.636 31.48 16.14 31.48ZM16.14 3.15999C8.94199 3.15999 3.15999 8.94199 3.15999 16.14C3.15999 23.338 8.94199 29.12 16.14 29.12C23.338 29.12 29.12 23.338 29.12 16.14C29.12 8.94199 23.338 3.15999 16.14 3.15999Z" fill="white"/>
<path d="M27.5648 25.8951L38.1612 36.4915L36.4926 38.16L25.8962 27.5636L27.5648 25.8951Z" fill="white"/>
</svg>
