<svg width="57" height="49" viewBox="0 0 57 49" fill="none" xmlns="http://www.w3.org/2000/svg">
<path d="M37.3279 37.25L43.7146 48.3125H39.4593L33.0725 37.25H23.9496L17.5629 48.3125H13.3075L19.6943 37.25H8.21875C7.72976 37.25 7.26079 37.0557 6.91502 36.71C6.56925 36.3642 6.375 35.8952 6.375 35.4062V4.0625H2.6875C2.19851 4.0625 1.72954 3.86825 1.38377 3.52248C1.038 3.17671 0.84375 2.70774 0.84375 2.21875C0.84375 1.72976 1.038 1.26079 1.38377 0.915022C1.72954 0.569252 2.19851 0.375 2.6875 0.375H54.3125C54.8015 0.375 55.2705 0.569252 55.6162 0.915022C55.962 1.26079 56.1562 1.72976 56.1562 2.21875C56.1562 2.70774 55.962 3.17671 55.6162 3.52248C55.2705 3.86825 54.8015 4.0625 54.3125 4.0625H50.625V35.4062C50.625 35.8952 50.4307 36.3642 50.085 36.71C49.7392 37.0557 49.2702 37.25 48.7812 37.25H37.3279ZM46.9375 4.0625H10.0625V33.5625H46.9375V4.0625ZM19.2812 18.8125C19.7702 18.8125 20.2392 19.0068 20.585 19.3525C20.9307 19.6983 21.125 20.1673 21.125 20.6562V24.3438C21.125 24.8327 20.9307 25.3017 20.585 25.6475C20.2392 25.9932 19.7702 26.1875 19.2812 26.1875C18.7923 26.1875 18.3233 25.9932 17.9775 25.6475C17.6318 25.3017 17.4375 24.8327 17.4375 24.3438V20.6562C17.4375 20.1673 17.6318 19.6983 17.9775 19.3525C18.3233 19.0068 18.7923 18.8125 19.2812 18.8125ZM28.5 15.125C28.989 15.125 29.458 15.3193 29.8037 15.665C30.1495 16.0108 30.3438 16.4798 30.3438 16.9688V24.3438C30.3438 24.8327 30.1495 25.3017 29.8037 25.6475C29.458 25.9932 28.989 26.1875 28.5 26.1875C28.011 26.1875 27.542 25.9932 27.1963 25.6475C26.8505 25.3017 26.6562 24.8327 26.6562 24.3438V16.9688C26.6562 16.4798 26.8505 16.0108 27.1963 15.665C27.542 15.3193 28.011 15.125 28.5 15.125ZM37.7188 11.4375C38.2077 11.4375 38.6767 11.6318 39.0225 11.9775C39.3682 12.3233 39.5625 12.7923 39.5625 13.2812V24.3438C39.5625 24.8327 39.3682 25.3017 39.0225 25.6475C38.6767 25.9932 38.2077 26.1875 37.7188 26.1875C37.2298 26.1875 36.7608 25.9932 36.415 25.6475C36.0693 25.3017 35.875 24.8327 35.875 24.3438V13.2812C35.875 12.7923 36.0693 12.3233 36.415 11.9775C36.7608 11.6318 37.2298 11.4375 37.7188 11.4375Z" fill="white"/>
</svg>
