<svg width="51" height="49" viewBox="0 0 51 49" fill="none" xmlns="http://www.w3.org/2000/svg">
<path d="M1.78815 19.4235C1.01869 17.227 11.71 17.6314 17.224 16.6776L37.3062 31.0674C44.3812 53.3449 38.3005 48.6076 25.0747 39.2439L12.7769 30.3484C6.73186 24.9523 0.13861 20.1623 1.78815 19.4248V19.4235Z" stroke="white" stroke-width="1.22917" stroke-linecap="round" stroke-linejoin="round"/>
<path d="M17.224 16.6776C16.6144 17.7039 21.1697 1.93986 24.8916 1.15811C28.6614 2.40449 30.8063 10.7407 33.1503 15.9536C40.9469 16.605 48.3908 15.9745 49.309 18.8581C50.7127 21.2562 42.578 28.3338 37.3049 31.0674M11.9915 30.0865C7.78034 45.5286 8.65059 46.2685 10.2755 47.5247C12.6896 49.6389 24.3741 40.5283 25.5541 39.5966" stroke="white" stroke-width="1.22917" stroke-linecap="round" stroke-linejoin="round"/>
</svg>
